<?xml version="1.0" encoding="UTF-8" standalone="no"?>
<svg
   width="1024"
   height="1024"
   viewBox="0 0 1024 1024"
   version="1.1"
   xml:space="preserve"
   style="clip-rule:evenodd;fill-rule:evenodd;stroke-linejoin:round;stroke-miterlimit:2"
   id="svg7"
   xmlns:xlink="http://www.w3.org/1999/xlink"
   xmlns="http://www.w3.org/2000/svg"
   xmlns:svg="http://www.w3.org/2000/svg"><defs
   id="defs7"><linearGradient
     id="swatch16"><stop
       style="stop-color:#ffffff;stop-opacity:1;"
       offset="0"
       id="stop16" /></linearGradient><linearGradient
     id="swatch15"><stop
       style="stop-color:#0060c7;stop-opacity:1;"
       offset="0"
       id="stop15" /></linearGradient><linearGradient
     id="swatch14"><stop
       style="stop-color:#b4ce00;stop-opacity:1;"
       offset="0"
       id="stop14" /></linearGradient><linearGradient
     id="swatch13"><stop
       style="stop-color:#004697;stop-opacity:1;"
       offset="0"
       id="stop13" /></linearGradient><linearGradient
     id="swatch12"><stop
       style="stop-color:#00c1d6;stop-opacity:1;"
       offset="0"
       id="stop12" /></linearGradient><linearGradient
     id="swatch11"><stop
       style="stop-color:#0382e2;stop-opacity:1;"
       offset="0"
       id="stop11" /></linearGradient><style
     id="style1">
      .cls-1 {
        fill: #0382e2;
      }

      .cls-1, .cls-2, .cls-3, .cls-4, .cls-5, .cls-6 {
        stroke-width: 0px;
      }

      .cls-2 {
        fill: #00c1d6;
      }

      .cls-3 {
        fill: #b4ce00;
      }

      .cls-4 {
        fill: #fff;
      }

      .cls-5 {
        fill: #0060c7;
      }

      .cls-6 {
        fill: #004697;
      }
    </style><style
     id="style1-9">
      .cls-1 {
        fill: #0382e2;
      }

      .cls-1, .cls-2, .cls-3, .cls-4, .cls-5, .cls-6 {
        stroke-width: 0px;
      }

      .cls-2 {
        fill: #00c1d6;
      }

      .cls-3 {
        fill: #b4ce00;
      }

      .cls-4 {
        fill: #fff;
      }

      .cls-5 {
        fill: #0060c7;
      }

      .cls-6 {
        fill: #004697;
      }
    </style><style
     id="style1-7">
      .cls-1 {
        fill: #fff;
      }

      .cls-1, .cls-2 {
        stroke-width: 0px;
      }

      .cls-2 {
        fill: #004697;
      }
    </style><linearGradient
     xlink:href="#swatch13"
     id="linearGradient1"
     gradientUnits="userSpaceOnUse"
     x1="132"
     y1="512"
     x2="892"
     y2="512" /></defs>
    
    <g
   id="g12"
   clip-path="none"
   style="clip-rule:evenodd;display:inline;fill-rule:evenodd;stroke-linejoin:round;stroke-miterlimit:2"><path
     id="ellipse1"
     clip-path="none"
     style="clip-rule:evenodd;fill:url(#swatch11);fill-rule:evenodd;stroke-width:11.3386;stroke-linecap:round;stroke-linejoin:round;stroke-miterlimit:2"
     d="M 512,62 A 450,450 0 0 0 62,512 450,450 0 0 0 512,962 450,450 0 0 0 962,512 450,450 0 0 0 512,62 Z" /><path
     id="ellipse2"
     clip-path="none"
     style="clip-rule:evenodd;fill:url(#swatch12);fill-rule:evenodd;stroke-width:17.6384;stroke-linecap:round;stroke-linejoin:round;stroke-miterlimit:2"
     d="M 959.40039,463.69727 A 1220.5096,449.45505 0 0 0 489.45898,818.11719 1220.5096,449.45505 0 0 0 552.06055,960.21289 450,450 0 0 0 962,512 450,450 0 0 0 959.40039,463.69727 Z" /><path
     id="ellipse8"
     clip-path="none"
     style="clip-rule:evenodd;fill:url(#swatch14);fill-rule:evenodd;stroke-width:14.1512;stroke-linecap:round;stroke-linejoin:round;stroke-miterlimit:2"
     d="M 90.439453,669.43945 A 450,450 0 0 0 512,962 450,450 0 0 0 667.80859,934.16602 598.13824,328.4375 0 0 0 90.439453,669.43945 Z" /><path
     id="ellipse9"
     clip-path="none"
     style="display:inline;fill:url(#swatch15);stroke-width:10.961;stroke-linecap:round;stroke-linejoin:round"
     d="M 512,62 A 450,450 0 0 0 62,512 450,450 0 0 0 67.15625,579.92773 1044.7284,755.44653 0 0 0 709.94141,107.87305 450,450 0 0 0 512,62 Z" /><path
     id="ellipse10"
     clip-path="none"
     style="fill:url(#swatch13);stroke-width:11.3386;stroke-linecap:round;stroke-linejoin:round"
     d="M 442.28906,67.431641 A 450,450 0 0 0 63.238281,478.62695 1069.0244,912.20465 0 0 0 442.28906,67.431641 Z" /><path
     id="circle12"
     clip-path="none"
     style="clip-rule:evenodd;display:inline;fill:url(#linearGradient1);fill-opacity:1;fill-rule:evenodd;stroke:none;stroke-width:1.43092;stroke-linejoin:round;stroke-miterlimit:2"
     d="M 512,132 A 380,380 0 0 0 132,512 380,380 0 0 0 512,892 380,380 0 0 0 892,512 380,380 0 0 0 512,132 Z"><desc
       id="desc10">This is the background behind the text</desc></path></g>
<g
   id="layer1"><path
     d="m 480,-526 -237,-137 -43,25 v 42 l 280,162 280,-162 v -42 l -43,-25 z M 440,-91 160,-252 q -19,-11 -29.5,-29 -10.5,-18 -10.5,-40 v -318 q 0,-22 10.5,-40 10.5,-18 29.5,-29 l 280,-161 q 19,-11 40,-11 21,0 40,11 l 280,161 q 19,11 29.5,29 10.5,18 10.5,40 v 186 q -27,-13 -57.5,-20 -30.5,-7 -62.5,-7 -116,0 -198,82 -82,82 -82,198 0,32 6.5,61.5 6.5,29.5 19.5,56.5 -7,-2 -13.5,-3.5 Q 446,-87 440,-91 Z M 720,0 Q 637,0 578.5,-58.5 520,-117 520,-200 520,-283 578.5,-341.5 637,-400 720,-400 q 83,0 141.5,58.5 58.5,58.5 58.5,141.5 0,83 -58.5,141.5 Q 803,0 720,0 Z m 20,-208 v -112 h -40 v 128 l 86,86 28,-28 z"
     id="path1"
     style="clip-rule:evenodd;fill-rule:evenodd;stroke-linejoin:round;stroke-miterlimit:2;fill:#ffffff"
     transform="matrix(0.61701123,0,0,0.61701123,191.15416,783.48494)" /></g></svg>
