<?xml version="1.0" encoding="UTF-8" standalone="no"?>
<svg
   width="1024"
   height="1024"
   viewBox="0 0 1024 1024"
   version="1.1"
   xml:space="preserve"
   style="clip-rule:evenodd;fill-rule:evenodd;stroke-linejoin:round;stroke-miterlimit:2"
   id="svg7"
   xmlns:xlink="http://www.w3.org/1999/xlink"
   xmlns="http://www.w3.org/2000/svg"
   xmlns:svg="http://www.w3.org/2000/svg"><defs
   id="defs7"><linearGradient
     id="swatch16"><stop
       style="stop-color:#ffffff;stop-opacity:1;"
       offset="0"
       id="stop16" /></linearGradient><linearGradient
     id="swatch15"><stop
       style="stop-color:#0060c7;stop-opacity:1;"
       offset="0"
       id="stop15" /></linearGradient><linearGradient
     id="swatch14"><stop
       style="stop-color:#b4ce00;stop-opacity:1;"
       offset="0"
       id="stop14" /></linearGradient><linearGradient
     id="swatch13"><stop
       style="stop-color:#004697;stop-opacity:1;"
       offset="0"
       id="stop13" /></linearGradient><linearGradient
     id="swatch12"><stop
       style="stop-color:#00c1d6;stop-opacity:1;"
       offset="0"
       id="stop12" /></linearGradient><linearGradient
     id="swatch11"><stop
       style="stop-color:#0382e2;stop-opacity:1;"
       offset="0"
       id="stop11" /></linearGradient><style
     id="style1">
      .cls-1 {
        fill: #0382e2;
      }

      .cls-1, .cls-2, .cls-3, .cls-4, .cls-5, .cls-6 {
        stroke-width: 0px;
      }

      .cls-2 {
        fill: #00c1d6;
      }

      .cls-3 {
        fill: #b4ce00;
      }

      .cls-4 {
        fill: #fff;
      }

      .cls-5 {
        fill: #0060c7;
      }

      .cls-6 {
        fill: #004697;
      }
    </style><style
     id="style1-9">
      .cls-1 {
        fill: #0382e2;
      }

      .cls-1, .cls-2, .cls-3, .cls-4, .cls-5, .cls-6 {
        stroke-width: 0px;
      }

      .cls-2 {
        fill: #00c1d6;
      }

      .cls-3 {
        fill: #b4ce00;
      }

      .cls-4 {
        fill: #fff;
      }

      .cls-5 {
        fill: #0060c7;
      }

      .cls-6 {
        fill: #004697;
      }
    </style><style
     id="style1-7">
      .cls-1 {
        fill: #fff;
      }

      .cls-1, .cls-2 {
        stroke-width: 0px;
      }

      .cls-2 {
        fill: #004697;
      }
    </style><linearGradient
     xlink:href="#swatch13"
     id="linearGradient1"
     gradientUnits="userSpaceOnUse"
     x1="132"
     y1="512"
     x2="892"
     y2="512" /></defs>
    
    <g
   id="g12"
   clip-path="none"
   style="clip-rule:evenodd;display:inline;fill-rule:evenodd;stroke-linejoin:round;stroke-miterlimit:2"><path
     id="ellipse1"
     clip-path="none"
     style="clip-rule:evenodd;fill:url(#swatch11);fill-rule:evenodd;stroke-width:11.3386;stroke-linecap:round;stroke-linejoin:round;stroke-miterlimit:2"
     d="M 512,62 A 450,450 0 0 0 62,512 450,450 0 0 0 512,962 450,450 0 0 0 962,512 450,450 0 0 0 512,62 Z" /><path
     id="ellipse2"
     clip-path="none"
     style="clip-rule:evenodd;fill:url(#swatch12);fill-rule:evenodd;stroke-width:17.6384;stroke-linecap:round;stroke-linejoin:round;stroke-miterlimit:2"
     d="M 959.40039,463.69727 A 1220.5096,449.45505 0 0 0 489.45898,818.11719 1220.5096,449.45505 0 0 0 552.06055,960.21289 450,450 0 0 0 962,512 450,450 0 0 0 959.40039,463.69727 Z" /><path
     id="ellipse8"
     clip-path="none"
     style="clip-rule:evenodd;fill:url(#swatch14);fill-rule:evenodd;stroke-width:14.1512;stroke-linecap:round;stroke-linejoin:round;stroke-miterlimit:2"
     d="M 90.439453,669.43945 A 450,450 0 0 0 512,962 450,450 0 0 0 667.80859,934.16602 598.13824,328.4375 0 0 0 90.439453,669.43945 Z" /><path
     id="ellipse9"
     clip-path="none"
     style="display:inline;fill:url(#swatch15);stroke-width:10.961;stroke-linecap:round;stroke-linejoin:round"
     d="M 512,62 A 450,450 0 0 0 62,512 450,450 0 0 0 67.15625,579.92773 1044.7284,755.44653 0 0 0 709.94141,107.87305 450,450 0 0 0 512,62 Z" /><path
     id="ellipse10"
     clip-path="none"
     style="fill:url(#swatch13);stroke-width:11.3386;stroke-linecap:round;stroke-linejoin:round"
     d="M 442.28906,67.431641 A 450,450 0 0 0 63.238281,478.62695 1069.0244,912.20465 0 0 0 442.28906,67.431641 Z" /><path
     id="circle12"
     clip-path="none"
     style="clip-rule:evenodd;display:inline;fill:url(#linearGradient1);fill-opacity:1;fill-rule:evenodd;stroke:none;stroke-width:1.43092;stroke-linejoin:round;stroke-miterlimit:2"
     d="M 512,132 A 380,380 0 0 0 132,512 380,380 0 0 0 512,892 380,380 0 0 0 892,512 380,380 0 0 0 512,132 Z"><desc
       id="desc10">This is the background behind the text</desc></path></g><g
   id="g1"
   style="display:inline"
   transform="matrix(22.345525,0,0,22.345525,-2950.7407,-8638.3363)"><path
     class="cls-1"
     d="M 26.94,37.98 C 25.58,35.79 23.76,32.72 23.79,29.7 23.82,22.1 33.05,14.3 27.04,7.72 26.97,7.65 26.85,7.7 26.87,7.8 c 1.23,8.06 -7.14,13.87 -5.62,21.98 0.51,2.64 2.54,6.57 5.69,8.2 z"
     id="path2-3"
     style="clip-rule:evenodd;fill-rule:evenodd;stroke-linejoin:round;stroke-miterlimit:2;fill:#ffffff;stroke-width:0px"
     transform="matrix(0.95842335,0,0,0.81611405,131.05655,390.10388)" /><path
     class="cls-1"
     d="m 10.1,17.88 6.76,3.29 c 0.66,0.32 1.07,0.99 1.07,1.72 v 0 c 0,0.67 -0.38,1.28 -0.98,1.57 L 10.1,27.79 C 9.62,28.02 9.07,27.67 9.07,27.15 V 26.7 c 0,-0.28 0.16,-0.53 0.41,-0.65 l 5.64,-2.7 c 0.27,-0.12 0.53,-0.23 0.77,-0.31 0.24,-0.09 0.42,-0.15 0.55,-0.17 -0.13,-0.03 -0.33,-0.08 -0.58,-0.16 -0.25,-0.08 -0.5,-0.18 -0.74,-0.3 L 9.48,19.69 C 9.23,19.57 9.07,19.32 9.07,19.05 v -0.51 c 0,-0.53 0.55,-0.87 1.03,-0.64 z"
     id="path3"
     style="clip-rule:evenodd;fill-rule:evenodd;stroke-linejoin:round;stroke-miterlimit:2;fill:#ffffff;stroke-width:0px"
     transform="matrix(0.95842335,0,0,0.81611405,131.05655,390.10388)" /><path
     class="cls-1"
     d="M 39.34,27.78 32.58,24.49 C 31.92,24.17 31.51,23.5 31.51,22.77 v 0 c 0,-0.67 0.38,-1.28 0.98,-1.57 l 6.85,-3.33 c 0.48,-0.23 1.03,0.12 1.03,0.64 v 0.45 c 0,0.28 -0.16,0.53 -0.41,0.65 l -5.64,2.7 c -0.27,0.12 -0.53,0.23 -0.77,0.31 -0.24,0.09 -0.42,0.15 -0.55,0.17 0.13,0.03 0.33,0.08 0.58,0.16 0.25,0.08 0.5,0.18 0.74,0.3 l 5.64,2.72 c 0.25,0.12 0.41,0.37 0.41,0.64 v 0.51 c 0,0.53 -0.55,0.87 -1.03,0.64 z"
     id="path4"
     style="clip-rule:evenodd;fill-rule:evenodd;stroke-linejoin:round;stroke-miterlimit:2;display:inline;fill:#ffffff;stroke-width:0px"
     transform="matrix(0.95842335,0,0,0.81611405,131.05655,390.10388)" /></g>
</svg>
