<?xml version="1.0" encoding="UTF-8" standalone="no"?>
<svg
   width="1024"
   height="1024"
   viewBox="0 0 1024 1024"
   version="1.1"
   xml:space="preserve"
   style="clip-rule:evenodd;fill-rule:evenodd;stroke-linejoin:round;stroke-miterlimit:2"
   id="svg7"
   xmlns:xlink="http://www.w3.org/1999/xlink"
   xmlns="http://www.w3.org/2000/svg"
   xmlns:svg="http://www.w3.org/2000/svg"><defs
   id="defs7"><linearGradient
     id="swatch16"
     gradientTransform="matrix(6.9412754e-5,0,0,9.1773604e-5,142.13801,415.458)"><stop
       style="stop-color:#ffffff;stop-opacity:1;"
       offset="0"
       id="stop16" /></linearGradient><linearGradient
     id="swatch15"><stop
       style="stop-color:#0060c7;stop-opacity:1;"
       offset="0"
       id="stop15" /></linearGradient><linearGradient
     id="swatch14"><stop
       style="stop-color:#b4ce00;stop-opacity:1;"
       offset="0"
       id="stop14" /></linearGradient><linearGradient
     id="swatch13"><stop
       style="stop-color:#004697;stop-opacity:1;"
       offset="0"
       id="stop13" /></linearGradient><linearGradient
     id="swatch12"
     gradientTransform="matrix(0.00242996,0,0,0.00274402,136.11894,407.23511)"><stop
       style="stop-color:#00c1d6;stop-opacity:1;"
       offset="0"
       id="stop12" /></linearGradient><linearGradient
     id="swatch11"><stop
       style="stop-color:#0382e2;stop-opacity:1;"
       offset="0"
       id="stop11" /></linearGradient><style
     id="style1">
      .cls-1 {
        fill: #0382e2;
      }

      .cls-1, .cls-2, .cls-3, .cls-4, .cls-5, .cls-6 {
        stroke-width: 0px;
      }

      .cls-2 {
        fill: #00c1d6;
      }

      .cls-3 {
        fill: #b4ce00;
      }

      .cls-4 {
        fill: #fff;
      }

      .cls-5 {
        fill: #0060c7;
      }

      .cls-6 {
        fill: #004697;
      }
    </style><style
     id="style1-9">
      .cls-1 {
        fill: #0382e2;
      }

      .cls-1, .cls-2, .cls-3, .cls-4, .cls-5, .cls-6 {
        stroke-width: 0px;
      }

      .cls-2 {
        fill: #00c1d6;
      }

      .cls-3 {
        fill: #b4ce00;
      }

      .cls-4 {
        fill: #fff;
      }

      .cls-5 {
        fill: #0060c7;
      }

      .cls-6 {
        fill: #004697;
      }
    </style><style
     id="style1-7">
      .cls-1 {
        fill: #fff;
      }

      .cls-1, .cls-2 {
        stroke-width: 0px;
      }

      .cls-2 {
        fill: #004697;
      }
    </style><linearGradient
     xlink:href="#swatch16"
     id="linearGradient1"
     x1="141.67461"
     y1="410.16211"
     x2="154.86288"
     y2="410.16211"
     gradientUnits="userSpaceOnUse"
     gradientTransform="matrix(1.0582626,0,0,0.99865426,-9.0432128,0.55215772)" /><linearGradient
     xlink:href="#swatch16"
     id="linearGradient8"
     gradientUnits="userSpaceOnUse"
     x1="146.74165"
     y1="418.05753"
     x2="153.81779"
     y2="418.05753" /><linearGradient
     xlink:href="#swatch13"
     id="linearGradient2"
     gradientUnits="userSpaceOnUse"
     x1="132"
     y1="512"
     x2="892"
     y2="512" /></defs>
    
    <g
   id="g12"
   clip-path="none"
   style="clip-rule:evenodd;display:inline;fill-rule:evenodd;stroke-linejoin:round;stroke-miterlimit:2"><path
     id="ellipse1"
     clip-path="none"
     style="clip-rule:evenodd;fill:url(#swatch11);fill-rule:evenodd;stroke-width:11.3386;stroke-linecap:round;stroke-linejoin:round;stroke-miterlimit:2"
     d="M 512,62 A 450,450 0 0 0 62,512 450,450 0 0 0 512,962 450,450 0 0 0 962,512 450,450 0 0 0 512,62 Z" /><path
     id="ellipse2"
     clip-path="none"
     style="clip-rule:evenodd;fill:url(#swatch12);fill-rule:evenodd;stroke-width:17.6384;stroke-linecap:round;stroke-linejoin:round;stroke-miterlimit:2"
     d="M 959.40039,463.69727 A 1220.5096,449.45505 0 0 0 489.45898,818.11719 1220.5096,449.45505 0 0 0 552.06055,960.21289 450,450 0 0 0 962,512 450,450 0 0 0 959.40039,463.69727 Z" /><path
     id="ellipse8"
     clip-path="none"
     style="clip-rule:evenodd;fill:url(#swatch14);fill-rule:evenodd;stroke-width:14.1512;stroke-linecap:round;stroke-linejoin:round;stroke-miterlimit:2"
     d="M 90.439453,669.43945 A 450,450 0 0 0 512,962 450,450 0 0 0 667.80859,934.16602 598.13824,328.4375 0 0 0 90.439453,669.43945 Z" /><path
     id="ellipse9"
     clip-path="none"
     style="display:inline;fill:url(#swatch15);stroke-width:10.961;stroke-linecap:round;stroke-linejoin:round"
     d="M 512,62 A 450,450 0 0 0 62,512 450,450 0 0 0 67.15625,579.92773 1044.7284,755.44653 0 0 0 709.94141,107.87305 450,450 0 0 0 512,62 Z" /><path
     id="ellipse10"
     clip-path="none"
     style="fill:url(#swatch13);stroke-width:11.3386;stroke-linecap:round;stroke-linejoin:round"
     d="M 442.28906,67.431641 A 450,450 0 0 0 63.238281,478.62695 1069.0244,912.20465 0 0 0 442.28906,67.431641 Z" /><path
     id="circle12"
     clip-path="none"
     style="clip-rule:evenodd;display:inline;fill:url(#linearGradient2);fill-opacity:1;fill-rule:evenodd;stroke:none;stroke-width:1.43092;stroke-linejoin:round;stroke-miterlimit:2"
     d="M 512,132 A 380,380 0 0 0 132,512 380,380 0 0 0 512,892 380,380 0 0 0 892,512 380,380 0 0 0 512,132 Z"><desc
       id="desc10">This is the background behind the text</desc></path></g><g
   id="g1"
   style="display:inline"
   transform="matrix(20.286185,0,0,19.09002,-2631.6098,-7387.1617)"><path
     id="path1"
     style="fill:none;stroke:url(#linearGradient1);stroke-width:2.03262;stroke-linecap:round;stroke-linejoin:round;stroke-dasharray:none"
     d="m 154.76456,396.02947 c -0.54131,0.87395 -0.61697,1.0377 -1.03065,1.76951 l -1.10846,-0.10098 -0.50392,1.26314 c -0.87895,0.24539 -1.76516,0.48246 -2.54615,0.84012 -0.82399,0.37735 -1.53084,0.88893 -1.98848,1.68615 l -1.30996,3.99157 -1.66273,0.0505 -0.10071,1.91998 c -1.69597,0.17292 -1.84322,1.70481 -2.56968,2.72843 -0.52528,1.49895 0.21012,2.99784 0.70544,4.49679 l -1.76354,0.90955 c 0.98886,2.38666 2.01864,4.75962 4.58508,6.61893 v 1.56628 l 1.76344,0.30315 1.91469,2.3242 c 1.79551,0.76883 5.27289,0.72965 5.95392,0.7448 0.2969,-0.0341 2.96937,0.18212 5.25444,-0.79634 l 1.9147,-2.32421 1.76343,-0.30315 v -1.56638 c 2.56644,-1.85931 3.59622,-4.23227 4.58508,-6.61893 l -1.76354,-0.90944 c 0.49532,-1.49895 1.23072,-2.99794 0.70544,-4.49689 -0.72646,-1.02362 -0.87371,-2.55542 -2.56968,-2.72834 l -0.1007,-1.92008 -1.66274,-0.0504 -1.30996,-3.99157 c -0.89139,-1.55284 -2.72842,-2.02208 -4.53472,-2.52637 l -0.50383,-1.26314 -1.10845,0.10109 z" /><path
     id="path7"
     style="fill:none;stroke:url(#linearGradient8);stroke-width:1.27039;stroke-linecap:round;stroke-linejoin:round;stroke-dasharray:none"
     d="m 153.81779,422.57759 c -2.52542,-2.09324 -5.30893,-3.9514 -7.07613,-6.73526 m 6.2513,-2.81405 c -2.25673,-0.82683 -4.57873,-1.50337 -6.16448,-3.87509 m 12.71967,5.84424 0.99847,-7.32046 m -6.60821,12.54845 8.90903,-7.93525 m -7.98777,14.48544 c -1.48178,-7.84293 -1.88553,-15.82333 -0.47753,-24.03476 m 3.03883,29.1554 c -1.43545,-1.34363 -2.29765,-2.81617 -2.5613,-4.79772" /></g>
</svg>
