<svg xmlns="http://www.w3.org/2000/svg" id="Layer_2" data-name="Layer 2" viewBox="0 0 384.44 100.29"><defs><style>      .cls-1 {        fill: #003478;      }    </style></defs><g id="_Layer_" data-name="&amp;lt;Layer&amp;gt;"><g><path class="cls-1" d="m85.13,0H15.16C6.79,0,0,6.79,0,15.16v69.97c0,8.38,6.79,15.16,15.16,15.16h69.97c8.37,0,15.16-6.79,15.16-15.16V15.16c0-8.37-6.79-15.16-15.16-15.16Zm9.6,84.5c0,5.64-4.58,10.22-10.22,10.22H15.79c-5.64,0-10.22-4.57-10.22-10.22V15.78c0-5.64,4.57-10.21,10.22-10.21h68.72c5.64,0,10.22,4.58,10.22,10.21v68.72Z"></path><path class="cls-1" d="m84.6,61.26c0,.2,0,.41,0,.62-.24,6.95-6.57,12.17-15,12.38-9.18.22-14.8-4.71-15-11.46h0v-9.89h-3.8v-9.29h3.8v-5.52h-7.42v30.65h-13v-30.65H15.59v-12.07h50.13v17.54h0v.05h16.71v9.29h-16.71v6.5c0,2.57,2.08,4.65,4.64,4.65,1.91,0,3.55-1.15,4.26-2.8h9.97Z"></path><g><path class="cls-1" d="m143.14,30.93h-9.73v21.94h-6.7v-21.94h-9.73v-4.92h26.15v4.92Z"></path><path class="cls-1" d="m167.41,52.87h-19.81v-26.86h19.53v4.92h-12.84v5.63h12.25v4.92h-12.25v6.46h13.11v4.92Z"></path><path class="cls-1" d="m197.75,30.93h-9.73v21.94h-6.7v-21.94h-9.73v-4.92h26.15v4.92Z"></path><path class="cls-1" d="m214.22,26.01c5.51,0,8.78,3.7,8.78,7.72,0,2.95-1.54,5.16-4.61,6.58,2.76,1.38,3.58,4.69,7.37,12.56h-7.37c-2.88-5.75-3.94-10.91-7.56-10.91h-1.93v10.91h-6.69v-26.86h12.01Zm-5.32,11.03h3.54c1.85,0,3.66-.79,3.66-3.07,0-2.01-1.3-3.03-3.82-3.03h-3.39v6.11Z"></path><path class="cls-1" d="m259.63,52.87h-7.21l-2.21-5.32h-12.01l-2.01,5.32h-7.09l10.83-26.86h7.76l11.93,26.86Zm-15.71-20.44l-3.94,10.44h8.27l-4.33-10.44Z"></path><path class="cls-1" d="m299.24,30.93h-9.73v21.94h-6.7v-21.94h-9.73v-4.92h26.15v4.92Z"></path><path class="cls-1" d="m323.51,52.87h-19.81v-26.86h19.53v4.92h-12.84v5.63h12.25v4.92h-12.25v6.46h13.12v4.92Z"></path><path class="cls-1" d="m353.19,50.57c-3.73,1.93-6.55,2.68-10.51,2.68-10.39,0-15.57-6.77-15.57-13.71s5.84-13.86,16.08-13.86c3.73,0,7.06.79,9.69,2.36v5.99c-2.94-1.65-5.92-2.76-9.22-2.76-5.69,0-9.69,3.39-9.69,8.15s3.96,8.23,9.53,8.23c3.49,0,5.84-1.1,9.69-2.95v5.87Z"></path><path class="cls-1" d="m384.44,52.87h-6.69v-10.87h-13.39v10.87h-6.7v-26.86h6.7v10.79h13.39v-10.79h6.69v26.86Z"></path></g></g></g></svg>