<?xml version="1.0" encoding="UTF-8" standalone="no" ?>
<!DOCTYPE svg PUBLIC "-//W3C//DTD SVG 1.1//EN" "http://www.w3.org/Graphics/SVG/1.1/DTD/svg11.dtd">
<svg xmlns="http://www.w3.org/2000/svg" xmlns:xlink="http://www.w3.org/1999/xlink" version="1.1" width="1280" height="1024" viewBox="0 0 1280 1024" xml:space="preserve">
<desc>Created with Fabric.js 5.3.0</desc>
<defs>
</defs>
<g transform="matrix(1 0 0 1 640 512)" id="background-logo"  >
<rect style="stroke: none; stroke-width: 0; stroke-dasharray: none; stroke-linecap: butt; stroke-dashoffset: 0; stroke-linejoin: miter; stroke-miterlimit: 4; fill: rgb(255,255,255); fill-opacity: 0; fill-rule: nonzero; opacity: 1;"  paint-order="stroke"  x="-640" y="-512" rx="0" ry="0" width="1280" height="1024" />
</g>
<g transform="matrix(1.4891759953515997 0 0 1.4891759953515997 217.41738764044948 512.4430810171497)" id="logo-logo"  >
<g style=""  paint-order="stroke"   >
		<g transform="matrix(0.29517037431656834 0 0 -0.29517037431656834 0 0)"  >
<linearGradient id="SVGID_3_419073" gradientUnits="userSpaceOnUse" gradientTransform="matrix(1 0 0 1 -423.27532511220153 -154.15200000000004)"  x1="0" y1="0" x2="0" y2="441">
<stop offset="0%" style="stop-color:rgb(23,234,217);stop-opacity: 1"/>
<stop offset="100%" style="stop-color:rgb(96,120,234);stop-opacity: 1"/>
</linearGradient>
<path style="stroke: none; stroke-width: 1; stroke-dasharray: none; stroke-linecap: butt; stroke-dashoffset: 0; stroke-linejoin: miter; stroke-miterlimit: 4; fill: url(#SVGID_3_419073); fill-rule: nonzero; opacity: 1;"  paint-order="stroke"  transform=" translate(61.66615984352097, -66.26990142781341)" d="M 0 0 C 0 -12.359 1.559 -24.643 4.62 -36.508 C 5.647 -40.539 4.6770000000000005 -44.855000000000004 1.996 -48.069 L -61.666 -124.337 L -125.328 -48.069 C -128.00900000000001 -44.855000000000004 -128.979 -40.539 -127.952 -36.508 C -124.89099999999999 -24.643 -123.332 -12.359000000000002 -123.332 0 C -123.332 64.46 -164.878 120.25 -225.535 139.093 L -182.277 173.719 L -77.71499999999999 48.468999999999994 C -73.74099999999999 43.696 -67.88399999999999 40.977 -61.66599999999999 40.977 C -55.44699999999999 40.977 -49.59199999999999 43.696 -45.61699999999999 48.468999999999994 L 58.94500000000001 173.719 L 102.203 139.093 C 41.546 120.25 0 64.46 0 0 M 278.889 85.015 C 287.142 103.479 291.762 123.90100000000001 291.762 145.387 C 291.762 208.079 252.173 264.305 193.208 285.41200000000003 C 187.066 287.865 179.95499999999998 286.74300000000005 174.878 282.46500000000003 C 168.831 277.331 166.85399999999998 269.002 169.95299999999997 261.701 L 170.04799999999997 261.47200000000004 C 175.02999999999997 250.31100000000004 177.55999999999997 238.40700000000004 177.55999999999997 226.06700000000004 C 177.55999999999997 193.45700000000005 159.515 164.34500000000003 131.82899999999998 149.49400000000003 L 71.59 197.697 C 62.55800000000001 204.922 49.190000000000005 203.572 41.775000000000006 194.692 L -61.666 70.792 L -165.107 194.692 C -172.522 203.572 -185.89 204.922 -194.921 197.697 L -255.161 149.494 C -282.846 164.345 -300.892 193.457 -300.892 226.067 C -300.892 238.407 -298.363 250.311 -293.38 261.472 L -293.28499999999997 261.70099999999996 C -290.186 269.00199999999995 -292.16299999999995 277.33099999999996 -298.21 282.465 C -303.287 286.743 -310.39799999999997 287.86499999999995 -316.541 285.412 C -375.505 264.30499999999995 -415.093 208.07899999999998 -415.093 145.38699999999997 C -415.093 123.90099999999997 -410.473 103.47899999999997 -402.221 85.01499999999997 C -434.698 45.635999999999974 -429.317 -17.437000000000026 -388.055 -63.10900000000002 C -366.815 -86.61200000000002 -339.302 -102.94300000000003 -310.171 -106.15900000000002 C -276.756 -109.84800000000001 -248.695 -99.40900000000002 -231.925 -84.25400000000002 C -190.32000000000002 -46.68100000000002 -190.616 25.902999999999977 -237.15300000000002 73.22599999999997 C -263.141 99.65099999999997 -292.93600000000004 99.11299999999997 -310.619 95.49599999999997 C -320.15000000000003 93.54499999999997 -315.446 89.54199999999997 -310.14200000000005 88.21799999999996 C -290.583 83.33799999999997 -271.79300000000006 71.85499999999996 -256.91100000000006 55.37099999999996 C -222.26600000000005 17.018999999999963 -219.05100000000004 -36.755000000000045 -249.76100000000005 -64.49800000000005 C -264.28800000000007 -77.61800000000005 -284.34900000000005 -83.05700000000004 -306.29200000000003 -79.82300000000005 C -329.18500000000006 -76.45800000000006 -351.204 -64.19300000000005 -368.29900000000004 -45.25500000000005 C -397.04900000000004 -13.443000000000051 -404.08400000000006 29.94799999999995 -387.56100000000004 59.38299999999995 C -371.99600000000004 37.50699999999995 -354.20300000000003 18.988999999999955 -328.00100000000003 11.936999999999955 C -308.08400000000006 6.575999999999955 -287.771 10.566999999999954 -276.91700000000003 16.480999999999955 C -270.32700000000006 20.071999999999957 -274.583 23.534999999999954 -278.584 23.933999999999955 C -340.189 30.060999999999954 -388.474 82.19999999999996 -388.474 145.38699999999994 C -388.474 190.66099999999994 -363.317 231.80899999999994 -324.336 252.85799999999995 C -326.447 244.16899999999995 -327.511 235.21299999999994 -327.511 226.06699999999995 C -327.511 173.96599999999995 -292.259 128.69199999999995 -241.77400000000003 115.97099999999995 L -241.58400000000003 115.93399999999994 C -187.63900000000004 103.19299999999994 -149.95100000000002 55.52299999999994 -149.95100000000002 -5.684341886080802e-14 C -149.95100000000002 -10.116000000000057 -151.22600000000003 -20.155000000000058 -153.716 -29.854000000000056 C -156.893 -42.15500000000006 -153.92600000000002 -55.35200000000006 -145.769 -65.12500000000006 L -77.715 -146.64200000000005 C -73.741 -151.41500000000005 -67.884 -154.15200000000004 -61.666000000000004 -154.15200000000004 C -55.447 -154.15200000000004 -49.592000000000006 -151.41500000000005 -45.617000000000004 -146.64200000000005 L 22.436999999999998 -65.12500000000006 C 30.593999999999998 -55.35200000000006 33.561 -42.15500000000006 30.384999999999998 -29.854000000000056 C 27.894999999999996 -20.155000000000058 26.619 -10.116000000000057 26.619 -5.684341886080802e-14 C 26.619 55.522999999999946 64.30799999999999 103.19299999999994 118.252 115.93399999999994 L 118.442 115.97099999999995 C 168.927 128.69199999999995 204.18 173.96599999999995 204.18 226.06699999999995 C 204.18 235.21299999999997 203.115 244.16899999999995 201.00400000000002 252.85799999999995 C 239.984 231.80899999999994 265.14200000000005 190.66099999999994 265.14200000000005 145.38699999999994 C 265.14200000000005 82.19999999999995 216.85700000000006 30.06099999999995 155.25300000000004 23.93399999999994 C 151.25000000000006 23.53499999999994 146.99400000000003 20.07199999999994 153.58500000000004 16.48099999999994 C 164.43900000000002 10.566999999999942 184.75200000000004 6.575999999999942 204.66900000000004 11.93699999999994 C 230.87100000000004 18.98899999999994 248.66400000000004 37.50699999999994 264.22900000000004 59.38299999999994 C 280.75200000000007 29.94799999999994 273.71700000000004 -13.443000000000055 244.96700000000004 -45.25500000000007 C 227.87200000000004 -64.19300000000007 205.85300000000004 -76.45800000000007 182.95900000000003 -79.82300000000006 C 161.01700000000002 -83.05700000000006 140.95600000000002 -77.61800000000007 126.42900000000003 -64.49800000000006 C 95.71900000000002 -36.75500000000007 98.93400000000003 17.018999999999934 133.57800000000003 55.37099999999994 C 148.46100000000004 71.85499999999993 167.25100000000003 83.33799999999994 186.81000000000003 88.21799999999993 C 192.11400000000003 89.54199999999993 196.81800000000004 93.54499999999993 187.28700000000003 95.49599999999994 C 169.60400000000004 99.11299999999994 139.80900000000003 99.65099999999994 113.82100000000004 73.22599999999994 C 67.28400000000005 25.902999999999942 66.98800000000004 -46.681000000000054 108.59300000000005 -84.25400000000005 C 125.36300000000004 -99.40900000000005 153.42400000000004 -109.84800000000004 186.83900000000006 -106.15900000000005 C 215.97000000000006 -102.94300000000005 243.48300000000006 -86.61200000000005 264.72300000000007 -63.10900000000005 C 305.9840000000001 -17.437000000000054 311.3660000000001 45.63599999999995 278.88900000000007 85.01499999999994" stroke-linecap="round" />
</g>
</g>
</g>
<g transform="matrix(1.9211538461538462 0 0 1.9211538461538462 775.1977293352134 514.4910310171496)" id="text-logo"  >
<g style=""  paint-order="stroke"   >
		<g transform="matrix(1 0 0 1 0 -16.684999999999974)" id="text-logo-path-0"  >
<path style="stroke: none; stroke-width: 0; stroke-dasharray: none; stroke-linecap: butt; stroke-dashoffset: 0; stroke-linejoin: miter; stroke-miterlimit: 4; fill: rgb(82,135,173); fill-rule: nonzero; opacity: 1;"  paint-order="stroke"  transform=" translate(-200.35, 7.085000000000001)" d="M 8.45 -18.43 L 2.43 -18.43 L 2.43 0 L 5.33 0 L 5.33 -7.43 L 8.3 -7.43 L 12.48 0 L 15.75 0 L 11.25 -7.8 C 13.58 -8.53 15.1 -10.23 15.1 -13.08 C 15.1 -17.05 12.25 -18.43 8.45 -18.43 Z M 8.1 -9.75 L 5.33 -9.75 L 5.33 -16.07 L 8.1 -16.07 C 10.78 -16.07 12.23 -15.3 12.23 -13.08 C 12.23 -10.85 10.78 -9.75 8.1 -9.75 Z M 22.33 -13.75 L 22.33 0 L 25.2 0 L 25.2 -13.75 Z M 23.75 -16.32 C 24.8 -16.32 25.55 -17 25.55 -18.05 C 25.55 -19.07 24.8 -19.75 23.75 -19.75 C 22.7 -19.75 21.98 -19.07 21.98 -18.05 C 21.98 -17 22.7 -16.32 23.75 -16.32 Z M 31.4 -13.75 L 36.28 0 L 39.6 0 L 44.35 -13.75 L 41.55 -13.75 L 39.2 -6.35 C 38.83 -5 38.4 -3.6 38 -2.25 L 37.9 -2.25 C 37.5 -3.6 37.1 -5 36.7 -6.35 L 34.35 -13.75 Z M 56.2 0.33 C 58 0.33 59.58 -0.28 60.85 -1.13 L 59.85 -2.95 C 58.85 -2.3 57.8 -1.93 56.58 -1.93 C 54.2 -1.93 52.55 -3.5 52.33 -6.13 L 61.25 -6.13 C 61.33 -6.48 61.4 -7.03 61.4 -7.6 C 61.4 -11.48 59.43 -14.1 55.78 -14.1 C 52.58 -14.1 49.5 -11.33 49.5 -6.88 C 49.5 -2.33 52.48 0.33 56.2 0.33 Z M 58.9 -8.13 L 52.3 -8.13 C 52.58 -10.53 54.1 -11.85 55.83 -11.85 C 57.83 -11.85 58.9 -10.48 58.9 -8.13 Z M 68.35 -13.75 L 68.35 0 L 71.23 0 L 71.23 -8.58 C 72.08 -10.75 73.43 -11.53 74.55 -11.53 C 75.1 -11.53 75.45 -11.45 75.93 -11.3 L 76.45 -13.8 C 76.03 -14 75.58 -14.1 74.9 -14.1 C 73.43 -14.1 71.98 -13.05 71 -11.28 L 70.93 -11.28 L 70.7 -13.75 Z M 85.9 0.33 C 89.3 0.33 91.13 -1.55 91.13 -3.85 C 91.13 -6.45 89 -7.3 87.08 -8.03 C 85.58 -8.58 84.22 -9.03 84.22 -10.2 C 84.22 -11.15 84.92 -11.9 86.45 -11.9 C 87.58 -11.9 88.55 -11.4 89.5 -10.7 L 90.85 -12.48 C 89.75 -13.35 88.22 -14.1 86.4 -14.1 C 83.35 -14.1 81.5 -12.38 81.5 -10.08 C 81.5 -7.75 83.53 -6.78 85.38 -6.08 C 86.85 -5.5 88.4 -4.95 88.4 -3.7 C 88.4 -2.65 87.63 -1.85 85.97 -1.85 C 84.5 -1.85 83.3 -2.48 82.08 -3.43 L 80.72 -1.58 C 82.08 -0.48 84 0.33 85.9 0.33 Z M 103.53 0.33 C 105.1 0.33 106.72 -0.25 108 -1.38 L 106.8 -3.28 C 105.97 -2.58 104.95 -2.02 103.8 -2.02 C 101.53 -2.02 99.92 -3.95 99.92 -6.88 C 99.92 -9.78 101.58 -11.73 103.9 -11.73 C 104.83 -11.73 105.6 -11.33 106.35 -10.65 L 107.78 -12.53 C 106.78 -13.4 105.5 -14.1 103.75 -14.1 C 100.13 -14.1 96.95 -11.45 96.95 -6.88 C 96.95 -2.3 99.8 0.33 103.53 0.33 Z M 117.57 0.33 C 119.22 0.33 120.7 -0.5 121.95 -1.58 L 122.05 -1.58 L 122.27 0 L 124.63 0 L 124.63 -8.28 C 124.63 -11.93 123.05 -14.1 119.62 -14.1 C 117.42 -14.1 115.5 -13.2 114.07 -12.3 L 115.15 -10.35 C 116.32 -11.1 117.67 -11.75 119.12 -11.75 C 121.15 -11.75 121.72 -10.35 121.75 -8.75 C 116.02 -8.13 113.52 -6.6 113.52 -3.65 C 113.52 -1.23 115.2 0.33 117.57 0.33 Z M 118.45 -1.95 C 117.22 -1.95 116.3 -2.5 116.3 -3.85 C 116.3 -5.4 117.67 -6.45 121.75 -6.93 L 121.75 -3.55 C 120.62 -2.53 119.65 -1.95 118.45 -1.95 Z M 132.45 -13.75 L 132.45 5.58 L 135.32 5.58 L 135.32 1.13 L 135.22 -1.23 C 136.4 -0.23 137.62 0.33 138.85 0.33 C 141.95 0.33 144.77 -2.38 144.77 -7.1 C 144.77 -11.33 142.82 -14.1 139.35 -14.1 C 137.8 -14.1 136.3 -13.25 135.1 -12.25 L 135.02 -12.25 L 134.8 -13.75 Z M 138.3 -2.05 C 137.45 -2.05 136.4 -2.38 135.32 -3.3 L 135.32 -10.03 C 136.47 -11.15 137.5 -11.7 138.57 -11.7 C 140.87 -11.7 141.8 -9.93 141.8 -7.05 C 141.8 -3.83 140.3 -2.05 138.3 -2.05 Z M 157.67 0.33 C 159.47 0.33 161.05 -0.28 162.32 -1.13 L 161.32 -2.95 C 160.32 -2.3 159.27 -1.93 158.05 -1.93 C 155.67 -1.93 154.02 -3.5 153.8 -6.13 L 162.72 -6.13 C 162.8 -6.48 162.87 -7.03 162.87 -7.6 C 162.87 -11.48 160.9 -14.1 157.25 -14.1 C 154.05 -14.1 150.97 -11.33 150.97 -6.88 C 150.97 -2.33 153.95 0.33 157.67 0.33 Z M 160.37 -8.13 L 153.77 -8.13 C 154.05 -10.53 155.57 -11.85 157.3 -11.85 C 159.3 -11.85 160.37 -10.48 160.37 -8.13 Z M 173.55 0.33 C 176.95 0.33 178.77 -1.55 178.77 -3.85 C 178.77 -6.45 176.65 -7.3 174.72 -8.03 C 173.22 -8.58 171.87 -9.03 171.87 -10.2 C 171.87 -11.15 172.57 -11.9 174.1 -11.9 C 175.22 -11.9 176.2 -11.4 177.15 -10.7 L 178.5 -12.48 C 177.4 -13.35 175.87 -14.1 174.05 -14.1 C 171 -14.1 169.15 -12.38 169.15 -10.08 C 169.15 -7.75 171.17 -6.78 173.02 -6.08 C 174.5 -5.5 176.05 -4.95 176.05 -3.7 C 176.05 -2.65 175.27 -1.85 173.62 -1.85 C 172.15 -1.85 170.95 -2.48 169.72 -3.43 L 168.37 -1.58 C 169.72 -0.48 171.65 0.33 173.55 0.33 Z M 197.97 -7.53 L 198.72 -10 C 199.32 -12 199.9 -14.03 200.42 -16.13 L 200.55 -16.13 C 201.1 -14.05 201.65 -12 202.27 -10 L 203 -7.53 Z M 198.87 -18.43 L 192.77 0 L 195.72 0 L 197.3 -5.25 L 203.7 -5.25 L 205.25 0 L 208.32 0 L 202.22 -18.43 Z M 218.55 0.33 C 221.95 0.33 223.77 -1.55 223.77 -3.85 C 223.77 -6.45 221.65 -7.3 219.72 -8.03 C 218.22 -8.58 216.87 -9.03 216.87 -10.2 C 216.87 -11.15 217.57 -11.9 219.1 -11.9 C 220.22 -11.9 221.2 -11.4 222.15 -10.7 L 223.5 -12.48 C 222.4 -13.35 220.87 -14.1 219.05 -14.1 C 216 -14.1 214.15 -12.38 214.15 -10.08 C 214.15 -7.75 216.17 -6.78 218.02 -6.08 C 219.5 -5.5 221.05 -4.95 221.05 -3.7 C 221.05 -2.65 220.27 -1.85 218.62 -1.85 C 217.15 -1.85 215.95 -2.48 214.72 -3.43 L 213.37 -1.58 C 214.72 -0.48 216.65 0.33 218.55 0.33 Z M 234.3 0.33 C 237.7 0.33 239.52 -1.55 239.52 -3.85 C 239.52 -6.45 237.4 -7.3 235.47 -8.03 C 233.97 -8.58 232.62 -9.03 232.62 -10.2 C 232.62 -11.15 233.32 -11.9 234.85 -11.9 C 235.97 -11.9 236.95 -11.4 237.9 -10.7 L 239.25 -12.48 C 238.15 -13.35 236.62 -14.1 234.8 -14.1 C 231.75 -14.1 229.9 -12.38 229.9 -10.08 C 229.9 -7.75 231.92 -6.78 233.77 -6.08 C 235.25 -5.5 236.8 -4.95 236.8 -3.7 C 236.8 -2.65 236.02 -1.85 234.37 -1.85 C 232.9 -1.85 231.7 -2.48 230.47 -3.43 L 229.12 -1.58 C 230.47 -0.48 232.4 0.33 234.3 0.33 Z M 252.05 0.33 C 253.85 0.33 255.42 -0.28 256.7 -1.13 L 255.7 -2.95 C 254.7 -2.3 253.65 -1.93 252.42 -1.93 C 250.05 -1.93 248.4 -3.5 248.17 -6.13 L 257.1 -6.13 C 257.17 -6.48 257.25 -7.03 257.25 -7.6 C 257.25 -11.48 255.27 -14.1 251.62 -14.1 C 248.42 -14.1 245.35 -11.33 245.35 -6.88 C 245.35 -2.33 248.32 0.33 252.05 0.33 Z M 254.75 -8.13 L 248.15 -8.13 C 248.42 -10.53 249.95 -11.85 251.67 -11.85 C 253.67 -11.85 254.75 -10.48 254.75 -8.13 Z M 267.92 0.33 C 271.32 0.33 273.15 -1.55 273.15 -3.85 C 273.15 -6.45 271.02 -7.3 269.1 -8.03 C 267.6 -8.58 266.25 -9.03 266.25 -10.2 C 266.25 -11.15 266.95 -11.9 268.47 -11.9 C 269.6 -11.9 270.57 -11.4 271.52 -10.7 L 272.88 -12.48 C 271.77 -13.35 270.25 -14.1 268.42 -14.1 C 265.38 -14.1 263.52 -12.38 263.52 -10.08 C 263.52 -7.75 265.55 -6.78 267.4 -6.08 C 268.88 -5.5 270.42 -4.95 270.42 -3.7 C 270.42 -2.65 269.65 -1.85 268 -1.85 C 266.52 -1.85 265.32 -2.48 264.1 -3.43 L 262.75 -1.58 C 264.1 -0.48 266.02 0.33 267.92 0.33 Z M 283.67 0.33 C 287.07 0.33 288.9 -1.55 288.9 -3.85 C 288.9 -6.45 286.77 -7.3 284.85 -8.03 C 283.35 -8.58 282 -9.03 282 -10.2 C 282 -11.15 282.7 -11.9 284.22 -11.9 C 285.35 -11.9 286.32 -11.4 287.27 -10.7 L 288.63 -12.48 C 287.52 -13.35 286 -14.1 284.17 -14.1 C 281.13 -14.1 279.27 -12.38 279.27 -10.08 C 279.27 -7.75 281.3 -6.78 283.15 -6.08 C 284.63 -5.5 286.17 -4.95 286.17 -3.7 C 286.17 -2.65 285.4 -1.85 283.75 -1.85 C 282.27 -1.85 281.07 -2.48 279.85 -3.43 L 278.5 -1.58 C 279.85 -0.48 281.77 0.33 283.67 0.33 Z M 295.7 -13.75 L 295.7 0 L 298.57 0 L 298.57 -9.75 C 299.7 -11 300.72 -11.63 301.65 -11.63 C 303.22 -11.63 303.95 -10.68 303.95 -8.3 L 303.95 0 L 306.82 0 L 306.82 -9.75 C 307.97 -11 308.97 -11.63 309.92 -11.63 C 311.47 -11.63 312.22 -10.68 312.22 -8.3 L 312.22 0 L 315.1 0 L 315.1 -8.65 C 315.1 -12.15 313.75 -14.1 310.88 -14.1 C 309.15 -14.1 307.75 -13.03 306.4 -11.58 C 305.8 -13.15 304.65 -14.1 302.6 -14.1 C 300.9 -14.1 299.52 -13.08 298.35 -11.83 L 298.27 -11.83 L 298.05 -13.75 Z M 328.72 0.33 C 330.52 0.33 332.1 -0.28 333.38 -1.13 L 332.38 -2.95 C 331.38 -2.3 330.32 -1.93 329.1 -1.93 C 326.72 -1.93 325.07 -3.5 324.85 -6.13 L 333.77 -6.13 C 333.85 -6.48 333.93 -7.03 333.93 -7.6 C 333.93 -11.48 331.95 -14.1 328.3 -14.1 C 325.1 -14.1 322.02 -11.33 322.02 -6.88 C 322.02 -2.33 325 0.33 328.72 0.33 Z M 331.43 -8.13 L 324.82 -8.13 C 325.1 -10.53 326.63 -11.85 328.35 -11.85 C 330.35 -11.85 331.43 -10.48 331.43 -8.13 Z M 340.88 -13.75 L 340.88 0 L 343.75 0 L 343.75 -9.75 C 344.95 -10.98 345.82 -11.63 347.1 -11.63 C 348.72 -11.63 349.43 -10.68 349.43 -8.3 L 349.43 0 L 352.3 0 L 352.3 -8.65 C 352.3 -12.15 351 -14.1 348.07 -14.1 C 346.2 -14.1 344.8 -13.08 343.52 -11.85 L 343.45 -11.85 L 343.22 -13.75 Z M 364.85 0.33 C 365.85 0.33 366.78 0.08 367.55 -0.18 L 367.03 -2.3 C 366.63 -2.13 366.03 -1.98 365.55 -1.98 C 364.13 -1.98 363.55 -2.83 363.55 -4.48 L 363.55 -11.45 L 367.13 -11.45 L 367.13 -13.75 L 363.55 -13.75 L 363.55 -17.55 L 361.15 -17.55 L 360.82 -13.75 L 358.68 -13.6 L 358.68 -11.45 L 360.68 -11.45 L 360.68 -4.5 C 360.68 -1.6 361.75 0.33 364.85 0.33 Z M 386.7 -14.28 C 386.7 -15.73 387.55 -16.78 388.8 -16.78 C 389.9 -16.78 390.38 -15.93 390.38 -14.93 C 390.38 -13.43 389.07 -12.4 387.5 -11.38 C 387 -12.4 386.7 -13.38 386.7 -14.28 Z M 387.68 0.33 C 389.9 0.33 391.7 -0.45 393.15 -1.7 C 394.65 -0.7 396.18 0 397.52 0.33 L 398.27 -2.02 C 397.27 -2.27 396.1 -2.83 394.9 -3.58 C 396.35 -5.5 397.38 -7.7 398.07 -10.08 L 395.43 -10.08 C 394.88 -8.1 394.05 -6.38 392.97 -4.98 C 391.35 -6.28 389.75 -7.9 388.57 -9.55 C 390.6 -11 392.65 -12.53 392.65 -14.95 C 392.65 -17.2 391.2 -18.75 388.75 -18.75 C 386.05 -18.75 384.27 -16.75 384.27 -14.25 C 384.27 -12.98 384.72 -11.55 385.47 -10.1 C 383.6 -8.85 381.93 -7.33 381.93 -4.8 C 381.93 -1.9 384.15 0.33 387.68 0.33 Z M 384.68 -4.98 C 384.68 -6.23 385.52 -7.2 386.65 -8.15 C 387.9 -6.35 389.5 -4.63 391.2 -3.18 C 390.22 -2.4 389.15 -1.93 388.02 -1.93 C 386.13 -1.93 384.68 -3.15 384.68 -4.98 Z" stroke-linecap="round" />
</g>
		<g transform="matrix(1 0 0 1 4.281250000000057 15.960000000000036)" id="text-logo-path-1"  >
<path style="stroke: none; stroke-width: 0; stroke-dasharray: none; stroke-linecap: butt; stroke-dashoffset: 0; stroke-linejoin: miter; stroke-miterlimit: 4; fill: rgb(82,135,173); fill-rule: nonzero; opacity: 1;"  paint-order="stroke"  transform=" translate(-164.605, 7.210000000000001)" d="M 2.43 -18.43 L 2.43 0 L 5.03 0 L 5.03 -9.1 C 5.03 -10.75 4.8 -13.13 4.67 -14.8 L 4.78 -14.8 L 6.23 -10.55 L 9.45 -1.78 L 11.25 -1.78 L 14.45 -10.55 L 15.93 -14.8 L 16.03 -14.8 C 15.88 -13.13 15.65 -10.75 15.65 -9.1 L 15.65 0 L 18.35 0 L 18.35 -18.43 L 15 -18.43 L 11.68 -9.1 C 11.25 -7.88 10.9 -6.63 10.48 -5.4 L 10.35 -5.4 C 9.93 -6.63 9.55 -7.88 9.13 -9.1 L 5.75 -18.43 Z M 32.17 0.33 C 35.58 0.33 38.65 -2.3 38.65 -6.88 C 38.65 -11.45 35.58 -14.1 32.17 -14.1 C 28.77 -14.1 25.7 -11.45 25.7 -6.88 C 25.7 -2.3 28.77 0.33 32.17 0.33 Z M 32.17 -2.02 C 30.02 -2.02 28.68 -3.95 28.68 -6.88 C 28.68 -9.78 30.02 -11.73 32.17 -11.73 C 34.35 -11.73 35.7 -9.78 35.7 -6.88 C 35.7 -3.95 34.35 -2.02 32.17 -2.02 Z M 45.77 -13.75 L 45.77 0 L 48.65 0 L 48.65 -9.75 C 49.85 -10.98 50.73 -11.63 52 -11.63 C 53.63 -11.63 54.33 -10.68 54.33 -8.3 L 54.33 0 L 57.2 0 L 57.2 -8.65 C 57.2 -12.15 55.9 -14.1 52.98 -14.1 C 51.1 -14.1 49.7 -13.08 48.43 -11.85 L 48.35 -11.85 L 48.13 -13.75 Z M 65.13 -13.75 L 65.13 0 L 68 0 L 68 -13.75 Z M 66.55 -16.32 C 67.6 -16.32 68.35 -17 68.35 -18.05 C 68.35 -19.07 67.6 -19.75 66.55 -19.75 C 65.5 -19.75 64.78 -19.07 64.78 -18.05 C 64.78 -17 65.5 -16.32 66.55 -16.32 Z M 80.67 0.33 C 81.67 0.33 82.6 0.08 83.38 -0.18 L 82.85 -2.3 C 82.45 -2.13 81.85 -1.98 81.38 -1.98 C 79.95 -1.98 79.38 -2.83 79.38 -4.48 L 79.38 -11.45 L 82.95 -11.45 L 82.95 -13.75 L 79.38 -13.75 L 79.38 -17.55 L 76.97 -17.55 L 76.65 -13.75 L 74.5 -13.6 L 74.5 -11.45 L 76.5 -11.45 L 76.5 -4.5 C 76.5 -1.6 77.58 0.33 80.67 0.33 Z M 94.78 0.33 C 98.18 0.33 101.25 -2.3 101.25 -6.88 C 101.25 -11.45 98.18 -14.1 94.78 -14.1 C 91.38 -14.1 88.3 -11.45 88.3 -6.88 C 88.3 -2.3 91.38 0.33 94.78 0.33 Z M 94.78 -2.02 C 92.63 -2.02 91.28 -3.95 91.28 -6.88 C 91.28 -9.78 92.63 -11.73 94.78 -11.73 C 96.95 -11.73 98.3 -9.78 98.3 -6.88 C 98.3 -3.95 96.95 -2.02 94.78 -2.02 Z M 108.38 -13.75 L 108.38 0 L 111.25 0 L 111.25 -8.58 C 112.1 -10.75 113.45 -11.53 114.58 -11.53 C 115.13 -11.53 115.48 -11.45 115.95 -11.3 L 116.48 -13.8 C 116.05 -14 115.6 -14.1 114.93 -14.1 C 113.45 -14.1 112 -13.05 111.03 -11.28 L 110.95 -11.28 L 110.73 -13.75 Z M 122.35 -13.75 L 122.35 0 L 125.23 0 L 125.23 -13.75 Z M 123.78 -16.32 C 124.83 -16.32 125.58 -17 125.58 -18.05 C 125.58 -19.07 124.83 -19.75 123.78 -19.75 C 122.73 -19.75 122 -19.07 122 -18.05 C 122 -17 122.73 -16.32 123.78 -16.32 Z M 133.28 -13.75 L 133.28 0 L 136.15 0 L 136.15 -9.75 C 137.35 -10.98 138.23 -11.63 139.5 -11.63 C 141.13 -11.63 141.83 -10.68 141.83 -8.3 L 141.83 0 L 144.7 0 L 144.7 -8.65 C 144.7 -12.15 143.4 -14.1 140.48 -14.1 C 138.6 -14.1 137.2 -13.08 135.93 -11.85 L 135.85 -11.85 L 135.63 -13.75 Z M 157.33 6.18 C 161.73 6.18 164.53 4.03 164.53 1.38 C 164.53 -0.98 162.83 -1.98 159.58 -1.98 L 157.05 -1.98 C 155.3 -1.98 154.75 -2.5 154.75 -3.33 C 154.75 -4 155.05 -4.38 155.5 -4.78 C 156.1 -4.5 156.8 -4.35 157.43 -4.35 C 160.3 -4.35 162.58 -6.08 162.58 -9.08 C 162.58 -10.13 162.2 -11.05 161.68 -11.6 L 164.3 -11.6 L 164.3 -13.75 L 159.43 -13.75 C 158.9 -13.95 158.2 -14.1 157.43 -14.1 C 154.58 -14.1 152.1 -12.28 152.1 -9.18 C 152.1 -7.53 152.98 -6.23 153.93 -5.5 L 153.93 -5.4 C 153.15 -4.85 152.38 -3.93 152.38 -2.85 C 152.38 -1.73 152.93 -1 153.63 -0.58 L 153.63 -0.45 C 152.35 0.33 151.63 1.4 151.63 2.55 C 151.63 4.95 154.03 6.18 157.33 6.18 Z M 157.43 -6.2 C 156 -6.2 154.83 -7.33 154.83 -9.18 C 154.83 -11.03 155.98 -12.08 157.43 -12.08 C 158.88 -12.08 160.03 -11 160.03 -9.18 C 160.03 -7.33 158.85 -6.2 157.43 -6.2 Z M 157.75 4.28 C 155.48 4.28 154.08 3.48 154.08 2.13 C 154.08 1.43 154.43 0.73 155.25 0.13 C 155.83 0.25 156.45 0.33 157.1 0.33 L 159.18 0.33 C 160.85 0.33 161.75 0.68 161.75 1.83 C 161.75 3.1 160.15 4.28 157.75 4.28 Z M 183.95 4.98 L 185.75 4.17 C 183.6 0.6 182.6 -3.63 182.6 -7.83 C 182.6 -12 183.6 -16.23 185.75 -19.83 L 183.95 -20.6 C 181.63 -16.82 180.25 -12.75 180.25 -7.83 C 180.25 -2.85 181.63 1.18 183.95 4.98 Z M 199.1 -18.43 L 193.08 -18.43 L 193.08 0 L 195.97 0 L 195.97 -7.43 L 198.95 -7.43 L 203.13 0 L 206.4 0 L 201.9 -7.8 C 204.22 -8.53 205.75 -10.23 205.75 -13.08 C 205.75 -17.05 202.9 -18.43 199.1 -18.43 Z M 198.75 -9.75 L 195.97 -9.75 L 195.97 -16.07 L 198.75 -16.07 C 201.43 -16.07 202.88 -15.3 202.88 -13.08 C 202.88 -10.85 201.43 -9.75 198.75 -9.75 Z M 215.85 -7.53 L 216.6 -10 C 217.2 -12 217.78 -14.03 218.3 -16.13 L 218.43 -16.13 C 218.97 -14.05 219.53 -12 220.15 -10 L 220.88 -7.53 Z M 216.75 -18.43 L 210.65 0 L 213.6 0 L 215.18 -5.25 L 221.58 -5.25 L 223.13 0 L 226.2 0 L 220.1 -18.43 Z M 232.38 -18.43 L 232.38 0 L 234.98 0 L 234.98 -9.1 C 234.98 -10.75 234.75 -13.13 234.63 -14.8 L 234.73 -14.8 L 236.18 -10.55 L 239.4 -1.78 L 241.2 -1.78 L 244.4 -10.55 L 245.88 -14.8 L 245.98 -14.8 C 245.83 -13.13 245.6 -10.75 245.6 -9.1 L 245.6 0 L 248.3 0 L 248.3 -18.43 L 244.95 -18.43 L 241.63 -9.1 C 241.2 -7.88 240.85 -6.63 240.43 -5.4 L 240.3 -5.4 C 239.88 -6.63 239.5 -7.88 239.08 -9.1 L 235.7 -18.43 Z M 255.6 4.17 L 257.4 4.98 C 259.75 1.18 261.13 -2.85 261.13 -7.83 C 261.13 -12.75 259.75 -16.82 257.4 -20.6 L 255.6 -19.83 C 257.75 -16.23 258.75 -12 258.75 -7.83 C 258.75 -3.63 257.75 0.6 255.6 4.17 Z M 278.88 -18.43 L 278.88 0 L 289.58 0 L 289.58 -2.45 L 281.78 -2.45 L 281.78 -18.43 Z M 299.58 0.33 C 301.23 0.33 302.7 -0.5 303.95 -1.58 L 304.05 -1.58 L 304.28 0 L 306.63 0 L 306.63 -8.28 C 306.63 -11.93 305.05 -14.1 301.63 -14.1 C 299.43 -14.1 297.5 -13.2 296.08 -12.3 L 297.15 -10.35 C 298.33 -11.1 299.68 -11.75 301.13 -11.75 C 303.15 -11.75 303.73 -10.35 303.75 -8.75 C 298.03 -8.13 295.53 -6.6 295.53 -3.65 C 295.53 -1.23 297.2 0.33 299.58 0.33 Z M 300.45 -1.95 C 299.23 -1.95 298.3 -2.5 298.3 -3.85 C 298.3 -5.4 299.68 -6.45 303.75 -6.93 L 303.75 -3.55 C 302.63 -2.53 301.65 -1.95 300.45 -1.95 Z M 320.85 0.33 C 323.95 0.33 326.78 -2.38 326.78 -7.1 C 326.78 -11.33 324.8 -14.1 321.33 -14.1 C 319.88 -14.1 318.4 -13.33 317.23 -12.3 L 317.33 -14.65 L 317.33 -19.93 L 314.45 -19.93 L 314.45 0 L 316.7 0 L 316.98 -1.43 L 317.05 -1.43 C 318.23 -0.33 319.6 0.33 320.85 0.33 Z M 320.3 -2.05 C 319.45 -2.05 318.38 -2.38 317.33 -3.3 L 317.33 -10.03 C 318.45 -11.15 319.5 -11.7 320.58 -11.7 C 322.88 -11.7 323.8 -9.93 323.8 -7.05 C 323.8 -3.83 322.3 -2.05 320.3 -2.05 Z" stroke-linecap="round" />
</g>
</g>
</g>
</svg>