<?xml version="1.0" encoding="UTF-8" standalone="no"?>
<!-- Created with Inkscape (http://www.inkscape.org/) -->

<svg
   width="84.110626mm"
   height="51.270046mm"
   viewBox="0 0 84.110626 51.270046"
   version="1.1"
   id="svg1"
   inkscape:version="1.4.2 (ebf0e940, 2025-05-08)"
   sodipodi:docname="usu_ram_transparent_logo_only.svg"
   xmlns:inkscape="http://www.inkscape.org/namespaces/inkscape"
   xmlns:sodipodi="http://sodipodi.sourceforge.net/DTD/sodipodi-0.dtd"
   xmlns="http://www.w3.org/2000/svg"
   xmlns:svg="http://www.w3.org/2000/svg">
  <sodipodi:namedview
     id="namedview1"
     pagecolor="#ffffff"
     bordercolor="#000000"
     borderopacity="0.25"
     inkscape:showpageshadow="2"
     inkscape:pageopacity="0.0"
     inkscape:pagecheckerboard="0"
     inkscape:deskcolor="#d1d1d1"
     inkscape:document-units="mm"
     inkscape:zoom="0.89887065"
     inkscape:cx="245.86407"
     inkscape:cy="86.219302"
     inkscape:window-width="1712"
     inkscape:window-height="1382"
     inkscape:window-x="853"
     inkscape:window-y="30"
     inkscape:window-maximized="0"
     inkscape:current-layer="layer1" />
  <defs
     id="defs1">
    <linearGradient
       id="SVGID_3_419073"
       gradientUnits="userSpaceOnUse"
       gradientTransform="matrix(0.11630042,0,0,-0.11630042,39.95208,176.9474)"
       x1="0"
       y1="0"
       x2="0"
       y2="441">
<stop
   offset="0%"
   style="stop-color:rgb(23,234,217);stop-opacity: 1"
   id="stop1" />

<stop
   offset="100%"
   style="stop-color:rgb(96,120,234);stop-opacity: 1"
   id="stop2" />

</linearGradient>
  </defs>
  <g
     inkscape:label="Layer 1"
     inkscape:groupmode="layer"
     id="layer1"
     transform="translate(-39.952083,-125.67708)">
    <path
       style="fill:url(#SVGID_3_419073);fill-rule:nonzero;stroke:none;stroke-width:0.1163;stroke-linecap:butt;stroke-linejoin:miter;stroke-miterlimit:4;stroke-dasharray:none;stroke-dashoffset:0"
       paint-order="stroke"
       d="m 89.179179,159.01946 c 0,1.43736 0.181312,2.86599 0.537308,4.2459 0.11944,0.4688 0.0066,0.97076 -0.305172,1.34454 l -7.403918,8.87001 -7.403917,-8.87001 c -0.311801,-0.37378 -0.424613,-0.87574 -0.305172,-1.34454 0.355995,-1.37991 0.537308,-2.80854 0.537308,-4.2459 0,-7.49673 -4.831818,-13.98513 -11.886252,-16.17657 l 5.030923,-4.02702 12.160605,14.56662 c 0.462178,0.55511 1.143349,0.87133 1.866505,0.87133 0.723273,0 1.404212,-0.31622 1.866506,-0.87133 l 12.160604,-14.56662 5.030923,4.02702 c -7.054434,2.19144 -11.886251,8.67984 -11.886251,16.17657 m 32.434911,-9.88728 c 0.95982,-2.14737 1.49713,-4.52246 1.49713,-7.02129 0,-7.29111 -4.60422,-13.83021 -11.46187,-16.28497 -0.71432,-0.28528 -1.54133,-0.15479 -2.13179,0.34274 -0.70326,0.59709 -0.93319,1.56575 -0.57278,2.41486 l 0.0111,0.0266 c 0.57941,1.29803 0.87365,2.68247 0.87365,4.11761 0,3.79256 -2.09864,7.1783 -5.31853,8.90548 l -7.005824,-5.60603 c -1.050425,-0.84027 -2.605129,-0.68327 -3.467497,0.34948 L 82.007397,150.78632 69.977166,136.3767 c -0.862368,-1.03275 -2.417072,-1.18975 -3.467381,-0.34948 l -7.005937,5.60603 c -3.219778,-1.72718 -5.318535,-5.11292 -5.318535,-8.90548 0,-1.43514 0.294124,-2.81958 0.873649,-4.11761 l 0.01105,-0.0266 c 0.360415,-0.84911 0.130489,-1.81777 -0.572779,-2.41486 -0.590457,-0.49753 -1.41747,-0.62802 -2.131903,-0.34274 -6.857538,2.45476 -11.461639,8.99386 -11.461639,16.28497 0,2.49883 0.537308,4.87392 1.497019,7.02129 -3.777089,4.57979 -3.151276,11.91521 1.647512,17.22688 2.47022,2.73341 5.669994,4.63271 9.057941,5.00674 3.886179,0.42903 7.149685,-0.78503 9.100043,-2.54756 4.838679,-4.36976 4.804254,-12.81131 -0.608019,-18.31499 -3.022415,-3.07324 -6.487586,-3.01067 -8.544126,-2.59001 -1.108459,0.2269 -0.561382,0.69245 0.05547,0.84643 2.27472,0.56755 4.460005,1.90302 6.190788,3.82012 4.029228,4.46035 4.403134,10.71429 0.831548,13.94081 -1.689496,1.52587 -4.022599,2.15842 -6.574579,1.78231 -2.662466,-0.39135 -5.223285,-1.81778 -7.21144,-4.02027 -3.343637,-3.69975 -4.161811,-8.74614 -2.240179,-12.16945 1.810216,2.54419 3.879549,4.69784 6.926853,5.51799 2.316355,0.62349 4.678766,0.15933 5.941091,-0.52847 0.766419,-0.41763 0.271445,-0.82038 -0.193873,-0.86678 -7.164688,-0.71258 -12.780253,-6.77636 -12.780253,-14.12504 0,-5.26538 2.925769,-10.05091 7.459276,-12.49892 -0.24551,1.01053 -0.369254,2.05212 -0.369254,3.1158 0,6.05937 4.099823,11.32476 9.971249,12.80421 l 0.0221,0.004 c 6.273826,1.48178 10.656957,7.02582 10.656957,13.48317 0,1.1765 -0.148283,2.34403 -0.437871,3.47203 -0.369487,1.43061 -0.02442,2.96543 0.924239,4.10203 l 7.914709,9.48047 c 0.462178,0.5551 1.143349,0.87341 1.866505,0.87341 0.723273,0 1.404212,-0.31831 1.866506,-0.87341 l 7.914709,-9.48047 c 0.948662,-1.1366 1.293725,-2.67142 0.924355,-4.10203 -0.289588,-1.128 -0.437987,-2.29553 -0.437987,-3.47203 0,-6.45735 4.383246,-12.00139 10.65696,-13.48317 l 0.0221,-0.004 c 5.87143,-1.47945 9.97137,-6.74484 9.97137,-12.80421 0,-1.06368 -0.12386,-2.10527 -0.36937,-3.1158 4.53339,2.44801 7.45927,7.23354 7.45927,12.49892 0,7.34868 -5.61556,13.41246 -12.78013,14.12504 -0.46555,0.0464 -0.96053,0.44915 -0.19399,0.86678 1.26232,0.6878 3.62473,1.15196 5.94109,0.52847 3.0473,-0.82015 5.11664,-2.9738 6.92685,-5.51799 1.92163,3.42331 1.10346,8.4697 -2.24018,12.16945 -1.98815,2.20249 -4.54897,3.62892 -7.21155,4.02027 -2.55187,0.37611 -4.88497,-0.25644 -6.57447,-1.78231 -3.57158,-3.22652 -3.19768,-9.48046 0.83144,-13.94081 1.7309,-1.9171 3.91618,-3.25257 6.1909,-3.82012 0.61686,-0.15398 1.16394,-0.61953 0.0555,-0.84643 -2.05654,-0.42066 -5.52172,-0.48323 -8.54413,2.59001 -5.412274,5.50368 -5.446698,13.94523 -0.60802,18.31499 1.95036,1.76253 5.21386,2.97659 9.10004,2.54756 3.38795,-0.37403 6.58772,-2.27333 9.05795,-5.00674 4.79867,-5.31167 5.4246,-12.64709 1.64751,-17.22688"
       stroke-linecap="round"
       id="path2"
       inkscape:label="path2" />
  </g>
</svg>
